<?xml version="1.0" encoding="iso-8859-1"?>
<!-- Generator: Adobe Illustrator 19.0.0, SVG Export Plug-In . SVG Version: 6.00 Build 0)  -->
<svg version="1.1" id="Layer_1" xmlns="http://www.w3.org/2000/svg" xmlns:xlink="http://www.w3.org/1999/xlink" x="0px" y="0px"
	 viewBox="0 0 473.931 473.931" style="enable-background:new 0 0 473.931 473.931;" xml:space="preserve">
<circle style="fill:#4ABC96;" cx="236.966" cy="236.966" r="236.966"/>
<path style="fill:#EBEDEF;" d="M346.184,207.544c-14.361,0-26.335,10.204-29.081,23.753h-15.236l-0.094-0.094l-0.09,0.09h-33.182
	l-46.039-52.748c-0.969-1.126-2.357-1.759-3.832-1.759H190.07v-14.443h-40.931v40.924h40.931v-16.269h26.237l38.641,44.299H136.2
	v-26.798l-38.158,32.95L136.2,270.17v-26.05h152.649l-39.779,39.779h-22.181c-1.785-11.491-11.686-20.307-23.685-20.307
	c-13.238,0-23.985,10.739-23.985,23.988s10.746,23.985,23.985,23.985c10.986,0,20.22-7.39,23.072-17.452h24.913
	c1.34,0,2.66-0.554,3.603-1.497l48.497-48.501h14.047c3.113,13.07,14.832,22.802,28.849,22.802
	c16.389,0,29.687-13.287,29.687-29.683S362.573,207.544,346.184,207.544z"/>
<g>
</g>
<g>
</g>
<g>
</g>
<g>
</g>
<g>
</g>
<g>
</g>
<g>
</g>
<g>
</g>
<g>
</g>
<g>
</g>
<g>
</g>
<g>
</g>
<g>
</g>
<g>
</g>
<g>
</g>
</svg>
