<svg id="Capa_1" enable-background="new 0 0 512 512" height="512" viewBox="0 0 512 512" width="512" xmlns="http://www.w3.org/2000/svg" xmlns:xlink="http://www.w3.org/1999/xlink"><linearGradient id="SVGID_1_" gradientUnits="userSpaceOnUse" x1="256" x2="256" y1="512" y2="0"><stop offset="0" stop-color="#addcff"/><stop offset=".5028" stop-color="#eaf6ff"/><stop offset="1" stop-color="#eaf6ff"/></linearGradient><linearGradient id="SVGID_2_" gradientUnits="userSpaceOnUse" x1="256" x2="256" y1="105" y2="407"><stop offset="0" stop-color="#5558ff"/><stop offset="1" stop-color="#00c0ff"/></linearGradient><g><circle cx="256" cy="256" fill="url(#SVGID_1_)" r="256"/><g><g><path d="m247.118 202.706c0 4.905 3.977 8.882 8.882 8.882s8.882-3.977 8.882-8.882c0-4.906-3.977-8.883-8.882-8.883s-8.882 3.977-8.882 8.883zm-53.294 26.647v-26.647c0-4.91-3.973-8.883-8.882-8.883h-8.882v-79.941c0-4.91-3.973-8.882-8.882-8.882-4.91 0-8.882 3.973-8.882 8.882v79.941h-8.882c-4.91 0-8.882 3.973-8.882 8.883v27.545c2.926-.424 5.841-.898 8.882-.898zm177.647.898v-27.545c0-4.91-3.973-8.883-8.882-8.883h-8.882v-79.941c0-4.91-3.973-8.882-8.882-8.882-4.91 0-8.882 3.973-8.882 8.882v79.941h-8.882c-4.91 0-8.882 3.973-8.882 8.883v26.647h44.412c3.039 0 5.953.474 8.88.898zm-146.854-76.702c16.793-16.793 45.973-16.793 62.766 0 3.47 3.47 9.091 3.47 12.56 0s3.47-9.09 0-12.56c-23.507-23.507-64.38-23.507-87.887 0-3.47 3.47-3.47 9.09 0 12.56s9.091 3.47 12.561 0zm50.215 25.121c3.478-3.461 3.478-9.091.017-12.561-10.045-10.079-27.653-10.079-37.698 0-3.461 3.47-3.461 9.1.017 12.561 3.487 3.461 9.108 3.47 12.56-.018 3.331-3.348 9.212-3.348 12.543 0 3.436 3.452 9.056 3.504 12.561.018zm87.756 68.448h-213.176c-24.487 0-44.412 19.924-44.412 44.412s19.925 44.412 44.412 44.412h97.706v19.4c-7.525 2.684-13.445 8.604-16.129 16.129h-63.813c-4.91 0-8.882 3.973-8.882 8.882s3.973 8.882 8.882 8.882h63.813c3.679 10.317 13.446 17.765 25.011 17.765s21.332-7.448 25.011-17.765h63.813c4.91 0 8.882-3.973 8.882-8.882s-3.973-8.882-8.882-8.882h-63.813c-2.684-7.525-8.604-13.445-16.129-16.129v-19.4h97.706c24.487 0 44.412-19.925 44.412-44.412s-19.925-44.412-44.412-44.412zm-213.176 53.294c-4.905 0-8.882-3.977-8.882-8.882 0-4.906 3.977-8.882 8.882-8.882s8.882 3.976 8.882 8.882c0 4.905-3.977 8.882-8.882 8.882zm35.529 0c-4.905 0-8.882-3.977-8.882-8.882 0-4.906 3.977-8.882 8.882-8.882s8.882 3.976 8.882 8.882c.001 4.905-3.977 8.882-8.882 8.882zm177.647 0h-71.059c-4.91 0-8.882-3.973-8.882-8.882s3.973-8.882 8.882-8.882h71.059c4.91 0 8.882 3.973 8.882 8.882s-3.972 8.882-8.882 8.882z" fill="url(#SVGID_2_)"/></g></g></g></svg>